<?xml version="1.0" encoding="utf-8"?>
<!-- Generator: Adobe Illustrator 23.0.3, SVG Export Plug-In . SVG Version: 6.00 Build 0)  -->
<svg version="1.1" id="Layer_1" xmlns="http://www.w3.org/2000/svg" xmlns:xlink="http://www.w3.org/1999/xlink" x="0px" y="0px"
	 viewBox="0 0 1125 2436" style="enable-background:new 0 0 1125 2436;" xml:space="preserve">
<style type="text/css">
	.st0{fill:url(#SVGID_1_);stroke:#231F20;stroke-linecap:round;stroke-miterlimit:10;}
	.st1{fill:#733400;}
	.st2{fill:#088208;}
	.st3{fill:#E5E51F;}
	.st4{fill:none;stroke:#FCEE21;stroke-width:4;stroke-miterlimit:10;}
	.st5{fill:#8B5200;}
	.st6{fill:#009E07;}
	.st7{fill:#FFFFFF;}
	.st8{fill:#2AD12A;}
	.st9{fill:#00A24D;}
	.st10{fill:#FF0000;}
</style>
<linearGradient id="SVGID_1_" gradientUnits="userSpaceOnUse" x1="562.5" y1="1650.5" x2="562.5" y2="-0.5">
	<stop  offset="0" style="stop-color:#00FFFF"/>
	<stop  offset="1" style="stop-color:#ADFFFF"/>
</linearGradient>
<rect x="-0.5" y="-0.5" class="st0" width="1126" height="1651"/>
<g>
	<path class="st1" d="M110.26,1429.18c53.2,10.65,107.97,13.42,161.98,8.2c-18.29-3.7-32.93-18.25-41.25-34.95
		c-8.32-16.7-11.25-35.51-13.69-54.01c-5.22-39.71-8.64-79.66-10.22-119.68c-0.09-2.33-0.28-4.9-1.96-6.52
		c-1.28-1.24-3.13-1.62-4.88-1.94c-11.34-2.12-22.69-4.25-34.03-6.37c10.61,29.83,9.8,62.78,2.94,93.68
		c-6.86,30.91-19.5,60.19-32.31,89.14c-5.86,13.23-12.65,27.41-25.52,34.03"/>
	<g>
		<path class="st1" d="M109.86,1430.63c53.42,10.59,108.16,13.4,162.38,8.26c1.57-0.15,2.17-2.56,0.4-2.95
			c-36.73-8.04-48.29-48.4-52.91-80.74c-5.71-39.93-9.12-80.26-10.9-120.55c-0.16-3.7,0.46-8.73-1.57-12.1
			c-1.65-2.73-4.66-3.33-7.56-3.88c-11.02-2.12-22.06-4.13-33.09-6.19c-1.03-0.19-2.25,0.68-1.85,1.85
			c13.27,38.15,8.33,79.31-3.62,117.11c-6.05,19.13-13.79,37.67-21.84,56.03c-6.73,15.35-13.15,33.54-28.74,42.02
			c-1.7,0.92-0.18,3.51,1.51,2.59c11.25-6.12,17.93-17.11,23.24-28.37c6.71-14.23,12.87-28.81,18.66-43.44
			c11.82-29.85,21.11-61.17,21.74-93.5c0.35-18.08-2.12-36.13-8.06-53.23c-0.62,0.62-1.23,1.23-1.85,1.85
			c9.77,1.83,19.54,3.66,29.3,5.48c2,0.37,4.08,0.61,6.05,1.15c4.05,1.13,4.34,5.14,4.49,8.71c0.21,4.92,0.43,9.84,0.69,14.76
			c1.05,20,2.55,39.97,4.51,59.9c1.89,19.29,3.94,38.66,7.07,57.79c2.71,16.59,6.92,33.48,16.17,47.74
			c8.77,13.53,21.76,24.43,37.74,27.92c0.13-0.98,0.27-1.96,0.4-2.95c-53.95,5.12-108.42,2.39-161.58-8.15
			C108.77,1427.36,107.97,1430.25,109.86,1430.63L109.86,1430.63z"/>
	</g>
</g>
<ellipse class="st2" cx="69.5" cy="2253.41" rx="1055.81" ry="851.29"/>
<circle class="st3" cx="161.31" cy="156.25" r="52.41"/>
<line class="st4" x1="188" y1="201" x2="236" y2="260"/>
<line class="st4" x1="214" y1="156" x2="328" y2="137"/>
<g>
	<path class="st5" d="M726.26,1477.96c66.57-41.09,95.48-121.51,119.78-195.86c17.44-53.37,35.02-107.41,38.95-163.43
		c1.12-15.97,2.92-35.07,17.1-42.52c6.84-3.59,14.98-3.36,22.7-3.03c8.22,0.34,16.44,0.69,24.66,1.03c2.78,0.12,5.79,0.32,7.88,2.15
		c2.44,2.13,2.82,5.74,2.96,8.98c2.19,49.54-10.01,100.22,2.41,148.23c7.47,28.86,23.39,54.7,39.1,80.05
		c29.92,48.28,60.38,97.23,102.29,135.57c-16.08,15.65-39.21,21.18-61.22,25.53c-121.74,24.1-246.69,31.81-366.69,63.43
		c22.82-17.29,41.19-40.41,52.86-66.55"/>
	<g>
		<path class="st5" d="M727.01,1479.25c44.59-27.79,72.7-73.41,92.86-120.77c10.37-24.35,18.91-49.43,27.14-74.57
			c10.37-31.69,20.76-63.44,28.43-95.92c3.72-15.75,6.77-31.66,8.86-47.71c1.85-14.22,1.48-29.13,5.05-43.07
			c1.53-5.96,4-11.97,8.57-16.27c6.19-5.82,14.58-6.63,22.7-6.47c8.03,0.16,16.06,0.64,24.08,0.97c4.91,0.2,10.78-0.57,13.32,4.65
			c1.66,3.42,0.93,9.02,0.99,12.7c0.56,33.4-4.49,66.64-3.31,100.04c0.56,15.9,2.62,31.8,7.24,47.06
			c4.43,14.65,10.95,28.6,18.29,42.01c15.02,27.4,32.19,53.94,49.44,79.98c16.86,25.44,35,50.19,56.09,72.32
			c5.24,5.5,10.67,10.82,16.26,15.96c0-0.71,0-1.41,0-2.12c-19.24,18.24-46.8,22.59-71.86,27.34
			c-28.61,5.43-57.37,10.02-86.17,14.29c-57.6,8.55-115.41,15.84-172.75,26.07c-32.4,5.78-64.63,12.53-96.47,20.88
			c0.39,0.91,0.77,1.83,1.16,2.74c23.06-17.64,41.43-40.62,53.39-67.09c0.79-1.75-1.8-3.27-2.59-1.51
			c-11.74,25.97-29.67,48.69-52.32,66.01c-1.27,0.97-0.62,3.21,1.16,2.74c115.32-30.26,234.7-38.65,351.62-60.53
			c26.75-5.01,56.39-9.32,76.96-28.82c0.57-0.54,0.59-1.58,0-2.12c-46.92-43.16-80.94-99.27-113.28-153.64
			c-8.46-14.22-16.43-28.84-22.29-44.35c-6.05-16-9.37-32.71-10.49-49.76c-2.24-33.98,2.95-67.87,2.98-101.85
			c0-6.27,1.21-14.79-1.73-20.6c-2.49-4.93-7.9-5.08-12.78-5.3c-8.42-0.37-16.84-0.78-25.26-1.04c-6.54-0.21-13.39-0.1-19.48,2.62
			c-10.5,4.7-15.18,15.62-17.24,26.29c-2.8,14.5-2.77,29.5-4.84,44.12c-4.74,33.44-13.66,66.12-23.66,98.32
			c-8.89,28.62-18.08,57.24-28.45,85.37c-18.6,50.43-43.04,101.96-85.91,136.29c-5.48,4.39-11.24,8.41-17.2,12.12
			C723.86,1477.68,725.37,1480.28,727.01,1479.25L727.01,1479.25z"/>
	</g>
</g>
<line class="st4" x1="195" y1="116" x2="246" y2="70"/>
<line class="st4" x1="148" y1="209" x2="130" y2="262"/>
<line class="st4" x1="204" y1="186" x2="301" y2="209"/>
<line class="st4" x1="161" y1="104" x2="109" y2="60"/>
<line class="st4" x1="119" y1="125" x2="70" y2="93"/>
<line class="st4" x1="120" y1="166" x2="55" y2="209"/>
<line class="st4" x1="-7258.84" y1="-312.37" x2="-7456.35" y2="-253.56"/>
<g>
	<g>
		<path class="st6" d="M-766.14,881.28c1.93,0,1.93-3,0-3C-768.07,878.28-768.07,881.28-766.14,881.28L-766.14,881.28z"/>
	</g>
</g>
<g>
	<g>
		<path class="st6" d="M-766.14,881.28c1.93,0,1.93-3,0-3C-768.07,878.28-768.07,881.28-766.14,881.28L-766.14,881.28z"/>
	</g>
</g>
<g>
	<g>
		<path class="st6" d="M-766.14,881.28c1.93,0,1.93-3,0-3C-768.07,878.28-768.07,881.28-766.14,881.28L-766.14,881.28z"/>
	</g>
</g>
<g>
	<path class="st7" d="M777.08,279.07c26.56,2.86,50.15,23.99,55.91,50.08c10.55-5.6,22.38-10.88,34.07-8.39s21.23,16.56,14.89,26.69
		c10.79-2.15,22.59,5.54,24.98,16.28s-5.04,22.71-15.73,25.33c16.03,2.68,22,26.21,11.35,38.48c-10.65,12.28-31.1,12.25-44.38,2.89
		c3.69,14.4-8.4,29.62-22.97,32.59c-14.57,2.97-29.76-4.04-40.19-14.64c-11.23,9.2-25.52,15.76-39.96,14.21
		c-14.43-1.55-28.26-13.03-29.07-27.52c-10.6,4.89-22.85,6.1-34.2,3.37c-8.6-2.07-17.48-7.39-19.41-16.02
		c-1.93-8.64,7.89-18.61,15.49-14.07c-12.81-2.33-26.29-5.42-35.65-14.48s-12.22-26.04-2.49-34.69
		c-21.46-0.04-40.56-20.76-38.85-42.15c6.56-1.96,13.12-3.93,19.69-5.89c-5.18-12.08-10.42-25.65-5.86-37.98
		c4.56-12.33,24.26-18.22,30.67-6.74c4.54-12.68,18.18-21.45,31.6-20.31c13.42,1.14,25.39,12.09,27.72,25.36
		c3.66-12.38,19.56-19.38,31.15-13.7c11.6,5.67,15.84,22.52,8.31,33c5.61-10.66,19.17-16.4,30.73-13"/>
	<g>
		<path d="M777.08,280.57c26.19,3.15,48.47,23.35,54.46,48.98c0.23,0.98,1.38,1.33,2.2,0.9c10.33-5.43,23.51-11.85,35.38-7.53
			c9.1,3.31,16.8,14.42,11.53,23.78c-0.69,1.23,0.45,2.4,1.69,2.2c10.48-1.69,21.68,5.59,23.3,16.33
			c1.51,9.94-5.35,19.7-14.85,22.39c-1.35,0.38-1.5,2.59,0,2.89c14.3,2.86,19.7,21.89,12.44,33.56
			c-9.32,14.98-31.28,13.88-44.32,5.07c-1.15-0.78-2.47,0.5-2.2,1.69c3.02,13.63-7.52,27.13-20.57,30.43
			c-14.77,3.73-29.77-3.74-40.09-13.94c-0.62-0.62-1.48-0.51-2.12,0c-11.38,9.13-26.35,16.29-41.28,13.4
			c-12.6-2.44-24.06-12.42-25.19-25.65c-0.1-1.21-1.18-1.77-2.26-1.3c-12.63,5.57-28.83,6.87-41.32,0.09
			c-5.33-2.89-10.86-8.21-10.17-14.82c0.63-6.07,7.09-12.59,13.36-9.41c0.39-0.91,0.77-1.83,1.16-2.74
			c-12.41-2.29-26.31-5.11-35.45-14.56c-8.12-8.39-11.17-23.35-2.03-32.11c0.96-0.92,0.21-2.53-1.06-2.56
			c-21.02-0.48-38.58-19.71-37.35-40.65c-0.37,0.48-0.73,0.96-1.1,1.45c6.56-1.96,13.12-3.93,19.69-5.89c1.02-0.3,1.28-1.31,0.9-2.2
			c-5.03-11.82-12.54-29.55-3.15-41.15c5.81-7.18,19.54-11.49,25.37-2.05c0.72,1.17,2.29,0.82,2.74-0.36
			c4.79-12.37,18-20.85,31.33-19.05c12.55,1.7,22.62,11.84,25.1,24.1c0.31,1.54,2.46,1.31,2.89,0c3.82-11.54,18.43-18.33,29.5-12.52
			c10.81,5.68,13.82,20.8,7.22,30.66c0.86,0.5,1.73,1.01,2.59,1.51c5.75-10.18,17.72-15.28,29.04-12.31c1.87,0.49,2.67-2.4,0.8-2.89
			c-12.6-3.31-26.01,2.33-32.42,13.69c-0.96,1.7,1.52,3.11,2.59,1.51c7.76-11.6,3.54-29.34-9.42-35.31
			c-12.7-5.86-28.5,1.92-32.79,14.86c0.96,0,1.93,0,2.89,0c-2.76-13.7-14.44-24.89-28.47-26.38c-14.62-1.55-28.53,7.88-33.74,21.33
			c0.91-0.12,1.83-0.24,2.74-0.36c-6.33-10.26-20.54-7.73-28.28-0.49c-13.1,12.25-4.95,33.03,0.88,46.72c0.3-0.73,0.6-1.47,0.9-2.2
			c-6.56,1.96-13.12,3.93-19.69,5.89c-0.67,0.2-1.06,0.77-1.1,1.45c-1.33,22.59,17.78,43.14,40.35,43.65
			c-0.35-0.85-0.71-1.71-1.06-2.56c-9.18,8.8-7.74,23.32-0.74,33.04c8.93,12.39,25.44,16.04,39.55,18.64
			c1.56,0.29,2.78-1.92,1.16-2.74c-5.55-2.82-11.39-0.41-14.96,4.42c-4.35,5.88-3.56,13.1,0.92,18.67
			c11.9,14.79,36.67,13.06,52.17,6.23c-0.75-0.43-1.5-0.86-2.26-1.3c1.2,14.08,12.58,25.03,26.01,28.24
			c16.43,3.93,33.01-3.79,45.58-13.87c-0.71,0-1.41,0-2.12,0c11.59,11.46,29.36,19.83,45.67,13.88c13.37-4.87,23.18-18.94,20-33.28
			c-0.73,0.56-1.47,1.13-2.2,1.69c14.56,9.84,39.55,10.29,48.98-7.12c7.22-13.33,1.13-33.81-14.79-37c0,0.96,0,1.93,0,2.89
			c11.2-3.17,19.12-14.86,16.9-26.53c-2.33-12.24-15.04-19.9-26.95-17.98c0.56,0.73,1.13,1.47,1.69,2.2
			c5.48-9.73-0.49-21.15-9.45-26.38c-13.22-7.72-29.44-0.34-41.56,6.03c0.73,0.3,1.47,0.6,2.2,0.9
			c-6.32-27.03-29.86-47.87-57.36-51.18C775.16,277.34,775.18,280.34,777.08,280.57L777.08,280.57z"/>
	</g>
</g>
<g>
	<path class="st7" d="M304.37,340.81c22.59-17.5,59.09-12.8,76.5,9.86c1.59,2.07,3.12,4.33,5.46,5.48
		c6.42,3.16,12.89-3.6,18.48-8.06c11.85-9.44,30.41-9.13,41.94,0.71c11.53,9.84,14.76,28.11,7.3,41.31
		c17.54-0.65,36.35,10.58,39.39,27.87c3.04,17.29-16.18,35.73-32.12,28.36c13.33,17.15,17.37,43,4.57,60.55
		c-12.8,17.55-44.11,19.28-54.91,0.44c2.27,7.97-2.77,16.56-9.73,21.05s-15.43,5.82-23.62,7.05c-11.81,1.77-24.38,3.44-35.28-1.42
		s-18.57-18.95-12.33-29.13c-25.25,19.61-68.34,6.53-78.44-23.8c-14.84,13.09-37.21,16.95-55.57,9.59s-31.87-25.61-33.56-45.32
		c1.58,3.99-2.21,8.49-6.44,9.21c-4.23,0.72-8.45-1.19-12.2-3.27c-15.72-8.7-29.73-22.27-34.31-39.64
		c-4.58-17.37,2.75-38.44,19.25-45.56c-20.15-5.58-32.56-29.92-25.84-49.72s30.67-31.59,50.67-25.47s33.2,28.63,29.46,49.21
		c-7.63-14.19,4.35-34.51,20.46-34.71c11.02-0.13,20.92,7.62,26.5,17.12c5.57,9.51,7.63,20.61,9.6,31.45
		c-2.79-8.67-4.07-19.93,3.31-25.25c7.82-5.63,19.21,0.54,24.01,8.9c4.79,8.36,5.8,18.42,10.17,27
		c-3.32-17.03,16.22-33.84,32.56-28.02"/>
	<g>
		<path d="M305.13,342.1c20.41-15.36,51.41-13.47,69.87,4.27c3.84,3.69,6.81,10.16,12.22,11.73c5.24,1.52,10.15-2.04,14.01-5.12
			c6-4.78,11.42-8.77,19.23-9.9c7.13-1.04,14.63,0.19,20.92,3.78c14.56,8.31,19.12,28.04,11.39,42.5c-0.52,0.98,0.12,2.28,1.3,2.26
			c15.79-0.31,34.11,8.8,37.68,25.45c3.46,16.15-13.53,34.76-30.01,27.83c-1.17-0.49-2.45,1.2-1.69,2.2
			c13.03,17.22,18.71,46.12,1.31,62.72c-13.23,12.63-38.84,13.65-49.06-3.24c-0.89-1.47-3.12-0.5-2.74,1.16
			c2.52,10.93-6.67,19.39-16.08,22.76c-8.93,3.19-19.26,4.32-28.66,5c-9.46,0.68-20.09-0.02-27.56-6.55
			c-6.54-5.71-10.41-15.21-5.92-23.29c0.67-1.2-0.78-3.01-2.05-2.05c-24.95,18.81-65.89,6.75-76.24-22.9
			c-0.39-1.11-1.62-1.42-2.51-0.66c-15.01,12.84-37.02,16.65-55.26,8.7c-17.3-7.54-29.44-24.68-31.31-43.37
			c-0.98,0.13-1.96,0.27-2.95,0.4c1.47,5.59-4.94,8.05-9.33,7.2c-3-0.58-5.79-2.18-8.42-3.68c-4.47-2.56-8.74-5.5-12.68-8.82
			c-7.94-6.71-14.69-15.09-18.3-24.92c-6.43-17.52-0.62-39.95,17.22-48.13c1.23-0.56,0.78-2.4-0.36-2.74
			c-14.53-4.34-24.79-18.03-26.37-32.94c-1.61-15.15,6.87-28.8,20.06-35.88c13.68-7.35,30.41-6.66,42.72,3.08
			c12.07,9.56,18.53,25.57,16.04,40.8c0.91-0.12,1.83-0.24,2.74-0.36c-7.65-15.38,6.81-35.48,23.93-31.98
			c21.26,4.34,26.62,29.02,29.89,47c0.96-0.27,1.93-0.53,2.89-0.8c-1.7-5.5-3.13-11.78-1.45-17.47c2.37-8.03,10.69-9.66,17.48-6.01
			c12.71,6.83,13.06,23.56,18.71,35.29c0.8,1.65,2.99,0.39,2.74-1.16c-2.64-16.39,15.08-31.17,30.72-26.17
			c1.84,0.59,2.63-2.31,0.8-2.89c-18.01-5.75-37.38,11.37-34.41,29.86c0.91-0.39,1.83-0.77,2.74-1.16
			c-6.54-13.56-7.74-36.79-27.05-38.73c-16.76-1.68-16.56,18.26-13.18,29.22c0.58,1.87,3.23,1.08,2.89-0.8
			c-3.63-19.95-11.99-50.85-38.16-49.65c-17.39,0.8-28.7,21.73-21.14,36.94c0.55,1.1,2.53,0.91,2.74-0.36
			c4.21-25.76-15.48-53.21-42.68-52.72c-26.2,0.47-47.82,24.51-40.79,50.7c3.64,13.56,13.77,25.01,27.33,29.06
			c-0.12-0.91-0.24-1.83-0.36-2.74c-22.68,10.39-26.07,40.02-14.7,59.91c6.58,11.51,17.04,20.61,28.46,27.14
			c4.77,2.73,10.69,5.78,16.28,3.68c4.39-1.65,7.09-6,5.88-10.58c-0.42-1.59-3.12-1.32-2.95,0.4c1.99,19.88,14.66,38.13,33.14,46.13
			c19.43,8.41,42.59,4.31,58.55-9.34c-0.84-0.22-1.67-0.44-2.51-0.66c10.92,31.31,54.04,44.75,80.64,24.7
			c-0.68-0.68-1.37-1.37-2.05-2.05c-4.57,8.22-1.98,17.73,4,24.54c7.58,8.64,19.42,10.5,30.36,9.93c11.7-0.61,25.5-1.93,36.07-7.28
			c9-4.56,15.66-14.05,13.28-24.38c-0.91,0.39-1.83,0.77-2.74,1.16c10.79,17.84,37.06,17.87,52.02,5.42
			c20.3-16.9,15.18-49.05,0.92-67.92c-0.56,0.73-1.13,1.47-1.69,2.2c17.35,7.29,36.01-11.14,34.2-28.51
			c-2.04-19.57-23.06-31.02-41.07-30.67c0.43,0.75,0.86,1.5,1.3,2.26c6.14-11.48,5.45-25.86-1.85-36.7
			c-7.5-11.14-21.3-16.11-34.35-13.92c-6.84,1.15-12.4,4.31-17.69,8.67c-3.21,2.65-7.81,7.18-12.37,6.42
			c-4.64-0.77-7.13-6-10.14-9.22c-8.74-9.35-20.95-15.07-33.54-16.82c-14.69-2.04-29.88,1.25-41.8,10.22
			C302.09,340.66,303.58,343.27,305.13,342.1L305.13,342.1z"/>
	</g>
</g>
<g>
	<path class="st8" d="M957.08,938.07c26.56,2.86,50.15,23.99,55.91,50.08c10.55-5.6,22.38-10.88,34.07-8.39
		c11.69,2.5,21.23,16.56,14.89,26.69c10.79-2.15,22.59,5.54,24.98,16.28s-5.04,22.71-15.73,25.33c16.03,2.68,22,26.21,11.35,38.48
		s-31.1,12.25-44.38,2.89c3.69,14.4-8.4,29.62-22.97,32.59s-29.76-4.04-40.19-14.64c-11.23,9.2-25.52,15.76-39.96,14.21
		c-14.43-1.55-28.26-13.03-29.07-27.52c-10.6,4.89-22.85,6.1-34.2,3.37c-8.6-2.07-17.48-7.39-19.41-16.02s7.89-18.61,15.49-14.07
		c-12.81-2.33-26.29-5.42-35.65-14.48c-9.36-9.05-12.22-26.04-2.49-34.69c-21.46-0.04-40.56-20.76-38.85-42.15
		c6.56-1.96,13.12-3.93,19.69-5.89c-5.18-12.08-10.42-25.65-5.86-37.98s24.26-18.22,30.67-6.74c4.54-12.68,18.18-21.45,31.6-20.31
		c13.42,1.14,25.39,12.09,27.72,25.36c3.66-12.38,19.56-19.38,31.15-13.7c11.6,5.67,15.84,22.52,8.31,33
		c5.61-10.66,19.17-16.4,30.73-13"/>
</g>
<g>
	<g>
		<path class="st8" d="M1729.94,983.25c1.93,0,1.93-3,0-3C1728.01,980.25,1728.01,983.25,1729.94,983.25L1729.94,983.25z"/>
	</g>
</g>
<ellipse class="st6" cx="1564.5" cy="2076.1" rx="1898.25" ry="669.23"/>
<g>
	<g>
		<path class="st1" d="M-172.92,1061.08c-0.65-0.65-1.31-1.31-1.96-1.96c-0.57-0.57-1.55-0.57-2.12,0c-0.57,0.57-0.57,1.55,0,2.12
			c0.65,0.65,1.31,1.31,1.96,1.96c0.57,0.57,1.55,0.57,2.12,0C-172.34,1062.62-172.35,1061.65-172.92,1061.08L-172.92,1061.08z"/>
	</g>
</g>
<g>
	<path class="st9" d="M206.4,1228.91c12.25,1,25.98-1.07,33.88-10.5c7.89-9.43,4.69-27.41-7.4-29.6
		c11.2-5.36,16.25-20.16,11.88-31.79c-4.37-11.63-16.74-19.3-29.16-19.5c-2.1-0.03-4.37,0.07-6.12-1.1
		c-1.83-1.24-2.55-3.53-3.5-5.53c-5.24-11.04-18.89-14.66-30.87-17.06c-4.39-0.88-9.15-1.71-13.16,0.28
		c-4.63,2.3-6.88,7.88-6.73,13.04c0.15,5.17,2.23,10.05,4.29,14.8c-11.77-1.19-23.59-1.82-35.42-1.89
		c-2.26-0.01-4.65,0.03-6.56,1.22c-3.42,2.14-3.85,7.24-2,10.83c1.85,3.59,5.31,6.01,8.64,8.29c-11.67,1.31-22.69,7.71-29.61,17.2
		c4.83,4.28,10.7,7.39,16.95,8.98c-5.23,2.44-10.71,5.11-13.92,9.91s-2.95,12.4,2.04,15.3c7.05,4.1,19.6-2.22,22.4,5.43
		c0.75,2.07,0.21,4.36,0.48,6.55c0.71,5.92,7.44,9.65,13.37,9.02c5.93-0.63,11.02-4.44,15.36-8.53c-0.75,6.84,1.82,13.97,6.76,18.75
		c1.56,1.51,3.64,2.87,5.77,2.45c3.28-0.65,4.34-4.75,4.65-8.07c0.93-9.86,1.21-19.78,0.84-29.68c7.73,7.58,17.22,13.36,27.5,16.73"
		/>
	<g>
		<path class="st9" d="M206.4,1230.41c13.61,0.96,32.23-1.7,38.08-16.21c4.05-10.04,0.41-24.22-11.21-26.83
			c0.12,0.91,0.24,1.83,0.36,2.74c9.47-4.91,14.78-15.41,14.13-25.96c-0.71-11.32-8.7-20.72-18.85-25.17
			c-2.54-1.11-5.19-1.93-7.92-2.41c-3.82-0.68-8.94,0.11-11.97-2.81c-1.72-1.66-2.42-5.17-3.91-7.19c-1.54-2.08-3.42-3.86-5.52-5.38
			c-4.54-3.3-9.91-5.29-15.28-6.77c-5.92-1.63-13.07-3.78-19.23-2.81c-5.46,0.86-9.28,5.01-10.7,10.22
			c-1.97,7.21,1.02,14.34,3.84,20.89c0.43-0.75,0.86-1.5,1.3-2.26c-8.5-0.84-17.02-1.43-25.56-1.7c-5.07-0.16-12.79-1.68-17.32,1.36
			c-3.27,2.19-4.22,6.42-3.37,10.11c1.21,5.26,5.99,8.61,10.16,11.48c0.25-0.93,0.5-1.86,0.76-2.8
			c-12.48,1.64-23.29,7.91-30.9,17.94c-0.37,0.49-0.23,1.43,0.23,1.82c5.21,4.43,11.02,7.54,17.62,9.37
			c-0.12-0.91-0.24-1.83-0.36-2.74c-8.06,3.79-17.8,9.37-16.69,19.76c0.96,9.02,9.23,9.92,16.62,9.68c2.1-0.07,4.54-0.36,6.57,0.25
			c4.29,1.3,3.28,5.18,3.75,8.78c0.45,3.5,2.51,6.39,5.47,8.26c9.1,5.78,18.98-0.42,25.82-6.71c-0.85-0.35-1.71-0.71-2.56-1.06
			c-0.43,5.71,0.89,11.37,4.13,16.14c2.37,3.49,6.9,8.35,11.62,6.04c4.23-2.08,4.38-8.01,4.7-12.01c0.72-8.89,0.88-17.8,0.58-26.72
			c-0.85,0.35-1.71,0.71-2.56,1.06c8.09,7.75,17.56,13.5,28.16,17.12c1.83,0.63,2.62-2.27,0.8-2.89
			c-10.12-3.46-19.12-8.95-26.84-16.35c-0.91-0.87-2.61-0.27-2.56,1.06c0.32,9.53,0.29,19.2-0.75,28.69
			c-0.39,3.53-0.64,9.54-7.95,5.55c-1.64-0.89-2.87-3.35-3.76-4.95c-2.18-3.97-2.91-8.26-2.57-12.74c0.1-1.37-1.67-1.88-2.56-1.06
			c-3.73,3.43-7.97,6.92-13.1,7.89c-4.93,0.93-11.38-1.15-12.88-6.49c-0.94-3.36,0.49-6.83-1.81-9.84
			c-1.19-1.56-2.91-2.37-4.79-2.79c-5.84-1.29-15.13,2.41-19.23-3.39c-6.81-9.62,7.05-17.48,13.91-20.72
			c1.21-0.57,0.81-2.42-0.36-2.74c-6.09-1.68-11.48-4.51-16.29-8.6c0.08,0.61,0.16,1.21,0.23,1.82
			c6.88-9.08,17.01-14.97,28.31-16.46c1.46-0.19,2.06-1.9,0.76-2.8c-4-2.76-9.15-6.24-8.97-11.74c0.23-7,8.2-5.84,13.07-5.74
			c10.19,0.19,20.35,0.83,30.49,1.83c1.26,0.12,1.69-1.34,1.3-2.26c-3.1-7.21-7.43-18.18-0.08-24.47c5.69-4.87,15.68-1.31,22.12,0.4
			c6.03,1.6,12.25,3.82,16.97,8.06c2.46,2.21,3.99,4.75,5.43,7.68c0.9,1.83,1.73,3.67,3.49,4.85c2.05,1.36,4.54,1.2,6.88,1.31
			c3.24,0.14,6.39,0.62,9.47,1.66c6.81,2.3,13,6.94,16.58,13.23c6.61,11.6,2.43,27.4-9.53,33.6c-1.13,0.58-0.88,2.46,0.36,2.74
			c10.77,2.43,13.12,16.62,8.1,25.11c-6.71,11.35-22.38,12.87-34.18,12.04C204.47,1227.28,204.48,1230.28,206.4,1230.41
			L206.4,1230.41z"/>
	</g>
</g>
<ellipse class="st10" cx="883.25" cy="1052.75" rx="8.75" ry="8.25"/>
</svg>
